# Blender v2.82 (sub 7) OBJ File: 'chopper.blend'
# www.blender.org
mtllib HelicopterPropeller.mtl
o Propeller_Cube1.001
v 0.055180 -0.335586 -0.000000
v -0.001162 -0.335586 -0.056353
v -0.038678 0.335586 -0.039848
v -0.057503 -0.335586 -0.000000
v -0.041001 -0.335586 0.039848
v -0.038678 0.335586 0.039848
v -0.001162 -0.335586 0.056353
v 0.001162 0.335586 0.056353
v 0.038678 -0.335586 0.039848
v 0.041001 0.335586 0.039848
v -0.038620 0.402396 -0.039848
v 0.001220 0.403198 0.056353
v 0.041059 0.404001 0.039848
v 0.057562 0.404333 0.000000
v 0.001162 0.335586 -0.152116
v 0.000370 0.374900 -0.152116
v 2.199662 0.424860 -0.725048
v 0.153247 0.338648 0.000000
v -0.106379 0.333421 -0.107562
v -0.151715 0.371837 0.000000
v -0.107171 0.372734 -0.107562
v -1.037190 0.298480 -2.073671
v -0.106379 0.333421 0.107562
v 0.001162 0.335586 0.152116
v 0.000370 0.374900 0.152116
v -0.107171 0.372734 0.107562
v 0.108702 0.337751 0.107562
v 0.152455 0.377962 0.000000
v 0.107911 0.377065 0.107562
v 2.193290 0.438060 -0.728024
v 2.087079 0.371907 -1.050304
v 0.732386 0.405904 2.202958
v 1.044138 0.340319 2.083121
v 0.038678 -0.335586 -0.039848
v 0.041001 0.335586 -0.039848
v 0.057503 0.335586 0.000000
v 0.001162 0.335586 -0.056353
v -0.041001 -0.335586 -0.039848
v -0.055180 0.335586 0.000000
v 0.001220 0.403198 -0.056353
v -0.055122 0.402064 0.000000
v -0.038620 0.402396 0.039848
v 0.041059 0.404001 -0.039848
v 0.108702 0.337751 -0.107562
v 0.107911 0.377065 -0.107562
v 2.093451 0.358707 -1.047327
v -0.150924 0.332524 0.000000
v -0.728249 0.363711 -2.213715
v -0.736270 0.376268 -2.212409
v -1.045211 0.311036 -2.072364
v 0.729779 0.420574 2.201651
v 1.046745 0.325650 2.084427
v -2.219951 0.355303 0.738177
v -2.215696 0.341277 0.735200
v -2.063727 0.268901 1.037175
v -2.067983 0.282927 1.040152
vt 0.606402 0.427908
vt 0.606402 0.108034
vt 0.620939 0.108166
vt 0.620939 0.428039
vt 0.726209 0.108046
vt 0.726209 0.427935
vt 0.705656 0.428000
vt 0.705656 0.108112
vt 0.691122 0.427908
vt 0.691122 0.108034
vt 0.705656 0.108127
vt 0.705656 0.428000
vt 0.670565 0.427935
vt 0.670565 0.108062
vt 0.656029 0.428066
vt 0.656029 0.108193
vt 0.726209 0.427935
vt 0.726209 0.108046
vt 0.746763 0.108112
vt 0.746763 0.428000
vt 0.641495 0.428066
vt 0.641495 0.108193
vt 0.656029 0.108100
vt 0.656029 0.427974
vt 0.317384 0.311730
vt 0.312202 0.316935
vt 0.304857 0.316951
vt 0.299652 0.311769
vt 0.299636 0.304424
vt 0.304818 0.299220
vt 0.312163 0.299204
vt 0.317367 0.304386
vt 0.294008 0.557431
vt 0.294008 0.643417
vt 0.264967 0.643417
vt 0.264967 0.557431
vt 0.699151 0.588100
vt 0.976176 0.839311
vt 0.932434 0.877153
vt 0.685123 0.602109
vt 0.323048 0.557431
vt 0.323048 0.643417
vt 0.294008 0.643417
vt 0.294008 0.557431
vt 0.685155 0.554246
vt 0.933974 0.279781
vt 0.976176 0.319441
vt 0.699165 0.568274
vt 0.235926 0.643417
vt 0.235926 0.557431
vt 0.264967 0.557431
vt 0.264967 0.643417
vt 0.323048 0.643417
vt 0.323048 0.557431
vt 0.352087 0.557431
vt 0.352087 0.643417
vt 0.332383 0.318132
vt 0.609068 0.567668
vt 0.566934 0.607372
vt 0.318395 0.332181
vt 0.318290 0.284318
vt 0.565262 0.010046
vt 0.609068 0.047801
vt 0.332340 0.298306
vt 0.361638 0.557431
vt 0.371908 0.560937
vt 0.371908 0.741179
vt 0.361638 0.737673
vt 0.243254 0.689197
vt 0.243254 0.919940
vt 0.241450 0.919376
vt 0.237675 0.689290
vt 0.651301 0.568242
vt 0.377613 0.320576
vt 0.415321 0.277193
vt 0.665330 0.554233
vt 0.665297 0.602096
vt 0.415209 0.878284
vt 0.376186 0.836726
vt 0.651288 0.588068
vt 0.254408 0.689197
vt 0.254408 0.919071
vt 0.252586 0.918164
vt 0.248830 0.689322
vt 0.298570 0.332224
vt 0.048261 0.610060
vt 0.010496 0.566712
vt 0.284520 0.318236
vt 0.284476 0.298411
vt 0.009058 0.050611
vt 0.048027 0.008968
vt 0.298464 0.284362
vt 0.361638 0.755347
vt 0.352087 0.753191
vt 0.352087 0.557431
vt 0.361638 0.559588
vt 0.684089 0.581847
vt 0.678891 0.587036
vt 0.684094 0.574505
vt 0.678905 0.569310
vt 0.671561 0.569306
vt 0.666364 0.574495
vt 0.666358 0.581837
vt 0.671547 0.587032
vt 0.232096 0.689197
vt 0.232096 0.919981
vt 0.230107 0.920394
vt 0.226518 0.689347
vt 0.259982 0.689197
vt 0.259982 0.918516
vt 0.257898 0.918563
vt 0.254408 0.689444
vt 0.265560 0.689197
vt 0.265559 0.918411
vt 0.263639 0.917510
vt 0.259982 0.689376
vt 0.237675 0.689197
vt 0.237675 0.920287
vt 0.235794 0.920261
vt 0.232096 0.689297
vt 0.271134 0.689197
vt 0.271134 0.918219
vt 0.269113 0.917695
vt 0.265559 0.689426
vt 0.248830 0.689197
vt 0.248830 0.919270
vt 0.246757 0.919724
vt 0.243254 0.689412
vt 0.392577 0.746213
vt 0.382772 0.746961
vt 0.382772 0.558179
vt 0.392577 0.557431
vt 0.371908 0.557431
vt 0.382772 0.557676
vt 0.382772 0.729769
vt 0.371908 0.729523
vt 0.181562 0.634331
vt 0.159043 0.611803
vt 0.159043 0.579949
vt 0.181562 0.557431
vt 0.213408 0.557438
vt 0.235926 0.579967
vt 0.235926 0.611820
vt 0.213408 0.634338
vn 0.7067 -0.0024 -0.7075
vn 0.7076 -0.0024 -0.7066
vn 1.0000 -0.0035 -0.0000
vn -0.0008 0.0000 -1.0000
vn 0.0008 -0.0000 -1.0000
vn -0.7076 0.0024 -0.7066
vn -0.7067 0.0024 -0.7075
vn -1.0000 0.0035 -0.0000
vn -0.7076 0.0024 0.7066
vn -0.7067 0.0024 0.7075
vn -0.0008 0.0000 1.0000
vn 0.0008 -0.0000 1.0000
vn 0.7067 -0.0024 0.7075
vn 0.7076 -0.0024 0.7066
vn -0.0201 0.9998 -0.0000
vn 0.3826 0.0077 -0.9239
vn 0.0786 -0.9888 0.1267
vn -0.9237 -0.0186 -0.3827
vn 0.1360 -0.9892 -0.0544
vn -0.3826 -0.0077 0.9239
vn 0.9237 0.0186 0.3827
vn -0.1407 0.9891 0.0437
vn -0.0678 0.9891 -0.1305
vn 0.3820 0.1491 0.9121
vn 0.9294 0.1662 -0.3294
vn -0.0481 -0.9876 -0.1493
vn -0.1524 -0.9853 0.0774
vn -0.8897 -0.1619 0.4269
vn 0.0379 0.9873 0.1542
vn 0.1565 0.9854 -0.0670
vn 0.8703 0.3397 -0.3566
vn 0.0233 -0.9997 -0.0061
vn 0.0294 -0.9996 -0.0000
vn 0.0172 -0.9999 -0.0000
vn 0.0233 -0.9997 0.0061
vn 0.1831 0.9621 -0.2019
vn 0.1832 0.9621 -0.2019
vn -0.0187 0.9589 -0.2832
vn -0.0184 0.9589 -0.2832
vn -0.2173 0.9557 -0.1986
vn -0.2986 0.9544 0.0000
vn -0.2173 0.9557 0.1986
vn -0.2172 0.9557 0.1987
vn -0.0186 0.9589 0.2832
vn -0.0184 0.9589 0.2832
vn 0.1832 0.9621 0.2019
vn 0.1831 0.9621 0.2019
vn 0.2678 0.9635 0.0000
vn -0.3358 0.0208 -0.9417
vn -0.9403 -0.0511 0.3364
vn 0.3302 0.0983 0.9388
vn -0.4261 -0.1090 -0.8981
vn 0.4296 -0.0097 0.9030
vn 0.9028 0.0465 -0.4275
vn -0.3820 -0.1491 -0.9121
vn -0.8703 -0.3397 0.3566
vn 0.0000 -1.0000 0.0000
usemtl Propeller_Material
s 1
f 34/1/1 35/2/2 36/3/3 1/4/3
f 2/5/4 37/6/5 35/7/2 34/8/1
f 38/9/6 3/10/7 37/11/5 2/12/4
f 4/13/8 39/14/8 3/10/7 38/9/6
f 5/15/9 6/16/10 39/14/8 4/13/8
f 7/17/11 8/18/12 6/19/10 5/20/9
f 9/21/13 10/22/14 8/23/12 7/24/11
f 1/4/3 36/3/3 10/22/14 9/21/13
f 40/25/15 11/26/15 41/27/15 42/28/15 12/29/15 13/30/15 14/31/15 43/32/15
f 44/33/16 15/34/16 16/35/16 45/36/16
f 44/37/17 46/38/17 17/39/17 18/40/17
f 19/41/18 47/42/18 20/43/18 21/44/18
f 19/45/19 22/46/19 48/47/19 15/48/19
f 23/49/20 24/50/20 25/51/20 26/52/20
f 27/53/21 18/54/21 28/55/21 29/56/21
f 16/57/22 49/58/22 50/59/22 21/60/22
f 28/61/23 30/62/23 31/63/23 45/64/23
f 51/65/24 32/66/24 52/67/24 33/68/24
f 15/69/25 48/70/25 49/71/25 16/72/25
f 23/73/26 55/74/26 54/75/26 47/76/26
f 27/77/27 52/78/27 32/79/27 24/80/27
f 21/81/28 50/82/28 22/83/28 19/84/28
f 20/85/29 53/86/29 56/87/29 26/88/29
f 25/89/30 51/90/30 33/91/30 29/92/30
f 30/93/31 17/94/31 46/95/31 31/96/31
f 35/97/32 44/37/32 18/40/33 36/98/33
f 37/99/34 15/48/34 44/37/32 35/97/32
f 3/100/35 19/45/35 15/48/34 37/99/34
f 39/101/33 47/76/33 19/45/35 3/100/35
f 6/102/32 23/73/32 47/76/33 39/101/33
f 8/103/34 24/80/34 23/73/32 6/102/32
f 10/104/35 27/77/35 24/80/34 8/103/34
f 36/98/33 18/40/33 27/77/35 10/104/35
f 43/32/36 45/64/37 16/57/38 40/25/39
f 40/25/39 16/57/38 21/60/40 11/26/40
f 11/26/40 21/60/40 20/85/41 41/27/41
f 41/27/41 20/85/41 26/88/42 42/28/43
f 42/28/43 26/88/42 25/89/44 12/29/45
f 12/29/45 25/89/44 29/92/46 13/30/47
f 13/30/47 29/92/46 28/61/48 14/31/48
f 14/31/48 28/61/48 45/64/37 43/32/36
f 47/105/49 54/106/49 53/107/49 20/108/49
f 24/109/50 32/110/50 51/111/50 25/112/50
f 18/113/51 17/114/51 30/115/51 28/116/51
f 45/117/52 31/118/52 46/119/52 44/120/52
f 26/121/53 56/122/53 55/123/53 23/124/53
f 29/125/54 33/126/54 52/127/54 27/128/54
f 22/129/55 50/130/55 49/131/55 48/132/55
f 53/133/56 54/134/56 55/135/56 56/136/56
f 5/137/57 4/138/57 38/139/57 2/140/57 34/141/57 1/142/57 9/143/57 7/144/57
